<svg width="100" height="100" viewBox="0 0 100 100" fill="none" xmlns="http://www.w3.org/2000/svg">
<g clip-path="url(#clip0_59_67)">
<rect x="11.5652" y="12" width="76" height="76" rx="17" fill="#664E38"/>
<path d="M0 49.3913C0 46.0776 2.68629 43.3913 6 43.3913H13.7926C16.0018 43.3913 17.7926 45.1822 17.7926 47.3913V63.1148C17.7926 65.324 16.0018 67.1148 13.7926 67.1148H6C2.68629 67.1148 0 64.4285 0 61.1148V49.3913Z" fill="#664E38"/>
<path d="M100.02 49.3913C100.02 46.0776 97.3337 43.3913 94.02 43.3913H86.2274C84.0182 43.3913 82.2274 45.1822 82.2274 47.3913V63.1148C82.2274 65.324 84.0182 67.1148 86.2274 67.1148H94.02C97.3337 67.1148 100.02 64.4285 100.02 61.1148V49.3913Z" fill="#664E38"/>
<rect x="19.8261" y="36.7826" width="59.4783" height="44.6087" rx="11" fill="#E5D6C0"/>
<circle cx="35.084" cy="56.997" r="8.6492" fill="white"/>
<circle cx="35.084" cy="56.997" r="7.16648" fill="black"/>
<circle cx="64.7383" cy="56.997" r="8.6492" fill="white"/>
<circle cx="64.7383" cy="56.997" r="7.16648" fill="black"/>
<circle cx="68.198" cy="53.5373" r="3.7068" fill="white"/>
<rect x="46.5009" y="58.6562" width="6.42512" height="7.4136" rx="1" fill="#FF91D0"/>
<mask id="mask0_59_67" style="mask-type:alpha" maskUnits="userSpaceOnUse" x="46" y="58" width="7" height="9">
<rect x="46.5009" y="58.6562" width="6.42512" height="7.4136" rx="1" fill="#D9D9D9"/>
</mask>
<g mask="url(#mask0_59_67)">
<rect x="47.4894" y="57.6678" width="4.44816" height="2.96544" rx="1.48272" fill="white"/>
</g>
<circle cx="38.5437" cy="53.5373" r="3.7068" fill="white"/>
<circle cx="38.5437" cy="53.5373" r="3.7068" fill="white"/>
</g>
<defs>
<clipPath id="clip0_59_67">
<rect width="100" height="100" fill="white"/>
</clipPath>
</defs>
</svg>
