<svg width="60" height="60" viewBox="0 0 60 60" fill="none" xmlns="http://www.w3.org/2000/svg">
<g clip-path="url(#clip0_2507_2)">
<rect width="60" height="60" fill="white"/>
<path fill-rule="evenodd" clip-rule="evenodd" d="M28.8572 8.4229C29.5645 8.02603 30.4353 8.02603 31.1416 8.4229C34.6364 10.3844 45.153 16.2885 48.6489 18.25C49.3562 18.6458 49.7916 19.3792 49.7916 20.1729C49.7916 24.0958 49.7916 35.9031 49.7916 39.826C49.7916 40.6198 49.3562 41.3531 48.6489 41.75C45.1541 43.7114 34.6374 49.6156 31.1416 51.5771C30.4343 51.9739 29.5635 51.9739 28.8572 51.5771C25.3624 49.6156 14.8458 43.7114 11.3499 41.75C10.6437 41.3531 10.2083 40.6208 10.2083 39.8271C10.2083 35.9042 10.2083 24.0969 10.2083 20.1739C10.2083 19.3802 10.6437 18.6469 11.351 18.25C14.8447 16.2885 25.3635 10.3844 28.8572 8.4229Z" fill="#283593"/>
<path fill-rule="evenodd" clip-rule="evenodd" d="M10.5249 40.8376C10.2478 40.4667 10.2083 40.1146 10.2083 39.6407C10.2083 35.7407 10.2083 24.0011 10.2083 20.1001C10.2083 19.3105 10.6426 18.5813 11.3478 18.1875C14.8301 16.2375 25.3114 10.3678 28.7937 8.41672C29.4989 8.02192 30.4541 8.03026 31.1593 8.42505C34.6416 10.375 45.0874 16.1948 48.5697 18.1448C48.851 18.3032 49.0655 18.4938 49.2572 18.7448L10.5249 40.8376Z" fill="#5C6BC0"/>
<path fill-rule="evenodd" clip-rule="evenodd" d="M30.0001 15.4167C38.049 15.4167 44.5834 21.9511 44.5834 30.0001C44.5834 38.049 38.049 44.5834 30.0001 44.5834C21.9511 44.5834 15.4167 38.049 15.4167 30.0001C15.4167 21.9511 21.9511 15.4167 30.0001 15.4167ZM30.0001 22.7084C34.024 22.7084 37.2917 25.9751 37.2917 30.0001C37.2917 34.024 34.024 37.2917 30.0001 37.2917C25.9761 37.2917 22.7084 34.024 22.7084 30.0001C22.7084 25.9751 25.9751 22.7084 30.0001 22.7084Z" fill="white"/>
<path fill-rule="evenodd" clip-rule="evenodd" d="M49.2551 18.7551C49.7926 19.2583 49.7822 20.0166 49.7822 20.6135C49.7822 24.5666 49.7488 35.8103 49.7916 39.7635C49.7957 40.176 49.6593 40.6103 49.4551 40.9374L29.5759 29.9999L49.2551 18.7551Z" fill="#3949AB"/>
</g>
<defs>
<clipPath id="clip0_2507_2">
<rect width="60" height="60" fill="white"/>
</clipPath>
</defs>
</svg>
