<svg width="60" height="60" viewBox="0 0 60 60" fill="none" xmlns="http://www.w3.org/2000/svg">
<rect width="60" height="60" fill="white"/>
<mask id="mask0_2504_7" style="mask-type:luminance" maskUnits="userSpaceOnUse" x="8" y="12" width="45" height="35">
<path d="M52.9338 12H8V47H52.9338V12Z" fill="white"/>
</mask>
<g mask="url(#mask0_2504_7)">
<path d="M52.2059 26.3787C51.1074 25.6474 48.2089 25.334 46.1045 25.8955C45.9853 23.8321 44.9133 22.0821 42.928 20.5672L42.2 20.084L41.7103 20.8153C40.7574 22.2519 40.3471 24.1716 40.4927 25.9086C40.5986 26.9795 40.9824 28.181 41.7103 29.056C38.9706 30.6231 36.4427 30.2705 25.2589 30.2705H8.00004C7.9471 32.7649 8.35739 37.5578 11.4412 41.4496C11.7853 41.8806 12.1559 42.2985 12.5662 42.7034C15.0809 45.1847 18.8662 47 24.5442 47.0131C33.2 47.0131 40.6118 42.403 45.125 31.2369C46.6074 31.2631 50.525 31.4981 52.4442 27.8414C52.4971 27.7761 52.9339 26.875 52.9339 26.875L52.2059 26.3918V26.3787ZM19.2765 24.1063H14.4192V28.8993H19.2765V24.1063ZM25.55 24.1063H20.6927V28.8993H25.55V24.1063ZM31.8103 24.1063H26.953V28.8993H31.8103V24.1063ZM38.0839 24.1063H33.2265V28.8993H38.0839V24.1063ZM13.003 24.1063H8.14563V28.8993H13.003V24.1063ZM19.2765 18.0466H14.4192V22.8396H19.2765V18.0466ZM25.55 18.0466H20.6927V22.8396H25.55V18.0466ZM31.8103 18.0466H26.953V22.8396H31.8103V18.0466ZM31.8103 12H26.953V16.7929H31.8103V12Z" fill="#00153C"/>
</g>
</svg>
