<svg width="60" height="60" viewBox="0 0 60 60" fill="none" xmlns="http://www.w3.org/2000/svg">
<rect width="60" height="60" fill="black"/>
<g clip-path="url(#clip0_2504_55)">
<path d="M26.7321 22.85V17.9141L7.98682 27.7053V33.2375L26.8118 43.0278V38.0928L12.8824 30.4513L26.7321 22.85Z" fill="#C0CA33"/>
<path d="M30.0752 42.0135H35.7264L52.1243 19.0691H46.5124L30.0752 42.0135Z" fill="#C0CA33"/>
<path d="M34.6523 19.5068C32.0366 19.5068 29.916 21.6275 29.916 24.2431C29.916 26.8587 32.0366 28.9793 34.6523 28.9793C37.2679 28.9793 39.3885 26.8587 39.3885 24.2431C39.3885 21.6265 37.2679 19.5068 34.6523 19.5068ZM34.6926 25.7946C33.9229 25.7946 33.2995 25.0728 33.2995 24.1831C33.2995 23.2934 33.9229 22.5715 34.6926 22.5715C35.4623 22.5715 36.0857 23.2934 36.0857 24.1831C36.0857 25.0728 35.4613 25.7946 34.6926 25.7946Z" fill="#C0CA33"/>
<path d="M46.8398 33.5693C44.2241 33.5693 42.1035 35.69 42.1035 38.3056C42.1035 40.9212 44.2241 43.0418 46.8398 43.0418C49.4554 43.0418 51.576 40.9212 51.576 38.3056C51.576 35.689 49.4554 33.5693 46.8398 33.5693ZM46.8801 39.8571C46.1104 39.8571 45.487 39.1353 45.487 38.2456C45.487 37.3559 46.1104 36.634 46.8801 36.634C47.6498 36.634 48.2732 37.3559 48.2732 38.2456C48.2732 39.1353 47.6488 39.8571 46.8801 39.8571Z" fill="#C0CA33"/>
</g>
<defs>
<clipPath id="clip0_2504_55">
<rect width="45" height="45" fill="white" transform="translate(8 8)"/>
</clipPath>
</defs>
</svg>
