<svg width="60" height="60" viewBox="0 0 60 60" fill="none" xmlns="http://www.w3.org/2000/svg">
<rect width="60" height="60" fill="white"/>
<path d="M2.948 36V27.816H7.532V28.572H3.848V31.428H6.728V32.16H3.848V35.256H7.568V36H2.948ZM13.078 36H12.142L10.678 33.66L9.21397 36H8.30197L10.102 33.12L8.40997 30.384H9.33397L10.69 32.592L12.118 30.384H13.018L11.254 33.108L13.078 36ZM17.0009 30.192C17.5369 30.192 18.0169 30.32 18.4409 30.576C18.8649 30.832 19.1969 31.188 19.4369 31.644C19.6769 32.1 19.7969 32.62 19.7969 33.204C19.7969 33.78 19.6769 34.296 19.4369 34.752C19.2049 35.2 18.8769 35.552 18.4529 35.808C18.0369 36.064 17.5609 36.192 17.0249 36.192C16.6169 36.192 16.2409 36.104 15.8969 35.928C15.5609 35.744 15.2769 35.488 15.0449 35.16V38.4H14.2289V30.384H15.0449V31.212C15.2769 30.892 15.5609 30.644 15.8969 30.468C16.2329 30.284 16.6009 30.192 17.0009 30.192ZM17.0249 35.448C17.4009 35.448 17.7369 35.352 18.0329 35.16C18.3289 34.968 18.5609 34.704 18.7289 34.368C18.8969 34.024 18.9809 33.636 18.9809 33.204C18.9809 32.764 18.8969 32.372 18.7289 32.028C18.5609 31.684 18.3289 31.416 18.0329 31.224C17.7369 31.032 17.4009 30.936 17.0249 30.936C16.6409 30.936 16.2969 31.032 15.9929 31.224C15.6969 31.416 15.4649 31.684 15.2969 32.028C15.1289 32.372 15.0449 32.76 15.0449 33.192C15.0449 33.624 15.1289 34.012 15.2969 34.356C15.4649 34.7 15.6969 34.968 15.9929 35.16C16.2969 35.352 16.6409 35.448 17.0249 35.448ZM23.7035 30.192C23.8955 30.192 24.0795 30.22 24.2555 30.276V31.02C24.0875 30.94 23.9035 30.9 23.7035 30.9C23.3595 30.9 23.0395 30.996 22.7435 31.188C22.4475 31.38 22.2075 31.66 22.0235 32.028C21.8475 32.388 21.7595 32.816 21.7595 33.312V36H20.9435V30.384H21.7595V31.512C21.9755 31.096 22.2475 30.772 22.5755 30.54C22.9115 30.308 23.2875 30.192 23.7035 30.192ZM27.3167 30.192C27.8207 30.192 28.2767 30.316 28.6847 30.564C29.0927 30.812 29.4127 31.152 29.6447 31.584C29.8767 32.008 29.9927 32.484 29.9927 33.012C29.9927 33.164 29.9887 33.28 29.9807 33.36H25.3607C25.3927 33.936 25.5807 34.428 25.9247 34.836C26.2687 35.244 26.7367 35.448 27.3287 35.448C27.8087 35.448 28.2047 35.36 28.5167 35.184C28.8367 35 29.0927 34.748 29.2847 34.428L29.9327 34.86C29.6687 35.276 29.3207 35.604 28.8887 35.844C28.4567 36.076 27.9447 36.192 27.3527 36.192C26.8087 36.192 26.3247 36.064 25.9007 35.808C25.4767 35.552 25.1447 35.196 24.9047 34.74C24.6647 34.284 24.5447 33.768 24.5447 33.192C24.5447 32.616 24.6607 32.1 24.8927 31.644C25.1327 31.188 25.4607 30.832 25.8767 30.576C26.3007 30.32 26.7807 30.192 27.3167 30.192ZM29.1767 32.688C29.0967 32.104 28.9007 31.668 28.5887 31.38C28.2767 31.084 27.8527 30.936 27.3167 30.936C26.7967 30.936 26.3687 31.104 26.0327 31.44C25.7047 31.768 25.4967 32.184 25.4087 32.688H29.1767ZM33.1774 36.192C32.6334 36.192 32.1534 36.076 31.7374 35.844C31.3294 35.612 31.0174 35.284 30.8014 34.86L31.5334 34.5C31.8294 35.132 32.4094 35.448 33.2734 35.448C33.6894 35.448 34.0334 35.372 34.3054 35.22C34.5774 35.068 34.7134 34.832 34.7134 34.512C34.7134 34.184 34.6014 33.94 34.3774 33.78C34.1614 33.62 33.7774 33.516 33.2254 33.468C32.4574 33.404 31.9054 33.232 31.5694 32.952C31.2414 32.672 31.0774 32.3 31.0774 31.836C31.0774 31.316 31.2654 30.912 31.6414 30.624C32.0174 30.336 32.5334 30.192 33.1894 30.192C34.3014 30.192 35.0574 30.632 35.4574 31.512L34.7254 31.872C34.5894 31.552 34.3894 31.316 34.1254 31.164C33.8694 31.012 33.5374 30.936 33.1294 30.936C32.7134 30.936 32.3934 31.012 32.1694 31.164C31.9534 31.316 31.8454 31.532 31.8454 31.812C31.8454 32.076 31.9614 32.292 32.1934 32.46C32.4334 32.62 32.8414 32.724 33.4174 32.772C34.1294 32.836 34.6574 33.012 35.0014 33.3C35.3534 33.58 35.5294 33.952 35.5294 34.416C35.5294 34.792 35.4214 35.116 35.2054 35.388C34.9894 35.652 34.7014 35.852 34.3414 35.988C33.9814 36.124 33.5934 36.192 33.1774 36.192ZM38.7438 36.192C38.1998 36.192 37.7198 36.076 37.3038 35.844C36.8958 35.612 36.5838 35.284 36.3678 34.86L37.0998 34.5C37.3958 35.132 37.9758 35.448 38.8398 35.448C39.2558 35.448 39.5998 35.372 39.8718 35.22C40.1438 35.068 40.2798 34.832 40.2798 34.512C40.2798 34.184 40.1678 33.94 39.9438 33.78C39.7278 33.62 39.3438 33.516 38.7918 33.468C38.0238 33.404 37.4718 33.232 37.1358 32.952C36.8078 32.672 36.6438 32.3 36.6438 31.836C36.6438 31.316 36.8318 30.912 37.2078 30.624C37.5838 30.336 38.0998 30.192 38.7558 30.192C39.8678 30.192 40.6238 30.632 41.0238 31.512L40.2918 31.872C40.1558 31.552 39.9558 31.316 39.6918 31.164C39.4358 31.012 39.1038 30.936 38.6958 30.936C38.2798 30.936 37.9598 31.012 37.7358 31.164C37.5198 31.316 37.4118 31.532 37.4118 31.812C37.4118 32.076 37.5278 32.292 37.7598 32.46C37.9998 32.62 38.4078 32.724 38.9838 32.772C39.6958 32.836 40.2238 33.012 40.5678 33.3C40.9198 33.58 41.0958 33.952 41.0958 34.416C41.0958 34.792 40.9878 35.116 40.7718 35.388C40.5558 35.652 40.2678 35.852 39.9078 35.988C39.5478 36.124 39.1598 36.192 38.7438 36.192Z" fill="black"/>
<g clip-path="url(#clip0_2509_17)">
<path d="M58 23H44V37H58V23Z" fill="#F7DF1E"/>
<path d="M53.4045 33.9375C53.6865 34.3979 54.0534 34.7364 54.7023 34.7364C55.2474 34.7364 55.5956 34.4639 55.5956 34.0875C55.5956 33.6364 55.2378 33.4766 54.6378 33.2141L54.3089 33.073C53.3596 32.6686 52.7289 32.1619 52.7289 31.0908C52.7289 30.1041 53.4807 29.353 54.6556 29.353C55.4921 29.353 56.0934 29.6441 56.5267 30.4064L55.5023 31.0641C55.2767 30.6597 55.0334 30.5004 54.6556 30.5004C54.2703 30.5004 54.0261 30.7448 54.0261 31.0641C54.0261 31.4588 54.2705 31.6186 54.8349 31.863L55.1638 32.0039C56.2816 32.4832 56.9127 32.9719 56.9127 34.0706C56.9127 35.255 55.9823 35.9039 54.7327 35.9039C53.5109 35.9039 52.7216 35.3217 52.3354 34.5586L53.4045 33.9375ZM48.7572 34.0515C48.9638 34.4181 49.1518 34.7281 49.6038 34.7281C50.0361 34.7281 50.3087 34.559 50.3087 33.9015V29.4281H51.6243V33.9192C51.6243 35.2815 50.8256 35.9015 49.6598 35.9015C48.6065 35.9015 47.9965 35.3564 47.6863 34.6998L48.7572 34.0515Z" fill="black"/>
</g>
<defs>
<clipPath id="clip0_2509_17">
<rect width="14" height="14" fill="white" transform="translate(44 23)"/>
</clipPath>
</defs>
</svg>
