<svg width="60" height="60" viewBox="0 0 60 60" fill="none" xmlns="http://www.w3.org/2000/svg">
<rect width="60" height="60" fill="white"/>
<path d="M15 44.5C15 40.3579 18.3579 37 22.5 37H30V44.5C30 48.6421 26.6421 52 22.5 52C18.3579 52 15 48.6421 15 44.5Z" fill="#24CB71"/>
<path d="M30 7V22H37.5C41.6421 22 45 18.6421 45 14.5C45 10.3579 41.6421 7 37.5 7H30Z" fill="#FF7237"/>
<path d="M37.5 37C41.6421 37 45 33.6421 45 29.5C45 25.3579 41.6421 22 37.5 22C33.3579 22 30 25.3579 30 29.5C30 33.6421 33.3579 37 37.5 37Z" fill="#00B6FF"/>
<path d="M15 14.5C15 18.6421 18.3579 22 22.5 22H30V7H22.5C18.3579 7 15 10.3579 15 14.5Z" fill="#FF3737"/>
<path d="M15 29.5C15 33.6421 18.3579 37 22.5 37H30V22H22.5C18.3579 22 15 25.3579 15 29.5Z" fill="#874FFF"/>
</svg>
