<svg width="60" height="60" viewBox="0 0 60 60" fill="none" xmlns="http://www.w3.org/2000/svg">
<rect width="60" height="60" fill="white"/>
<path fill-rule="evenodd" clip-rule="evenodd" d="M29.5 7C17.0687 7 7 17.0687 7 29.5C7 39.4562 13.4406 47.8656 22.3844 50.8469C23.5094 51.0438 23.9312 50.3688 23.9312 49.7781C23.9312 49.2438 23.9031 47.4719 23.9031 45.5875C18.25 46.6281 16.7875 44.2094 16.3375 42.9437C16.0844 42.2969 14.9875 40.3 14.0312 39.7656C13.2437 39.3437 12.1187 38.3031 14.0031 38.275C15.775 38.2469 17.0406 39.9062 17.4625 40.5812C19.4875 43.9844 22.7219 43.0281 24.0156 42.4375C24.2125 40.975 24.8031 39.9906 25.45 39.4281C20.4437 38.8656 15.2125 36.925 15.2125 28.3187C15.2125 25.8719 16.0844 23.8469 17.5188 22.2719C17.2938 21.7094 16.5062 19.4031 17.7437 16.3094C17.7437 16.3094 19.6281 15.7188 23.9312 18.6156C25.7312 18.1094 27.6438 17.8562 29.5563 17.8562C31.4688 17.8562 33.3813 18.1094 35.1813 18.6156C39.4844 15.6906 41.3688 16.3094 41.3688 16.3094C42.6063 19.4031 41.8188 21.7094 41.5938 22.2719C43.0281 23.8469 43.9 25.8437 43.9 28.3187C43.9 36.9531 38.6406 38.8656 33.6344 39.4281C34.45 40.1312 35.1531 41.4813 35.1531 43.5906C35.1531 46.6 35.125 49.0188 35.125 49.7781C35.125 50.3688 35.5469 51.0719 36.6719 50.8469C45.5594 47.8656 52 39.4281 52 29.5C52 17.0687 41.9313 7 29.5 7Z" fill="#1B1F23"/>
</svg>
