<svg width="60" height="60" viewBox="0 0 60 60" fill="none" xmlns="http://www.w3.org/2000/svg">
<g clip-path="url(#clip0_2504_155)">
<rect width="60" height="60" fill="white"/>
<path d="M29.5625 31.1225C28.315 29.1113 27.41 27.4438 26.1562 24.3038C24.0362 19 39.05 14.2075 32.9625 4.99878C35.6012 11.36 23.4912 15.2925 22.3662 20.59C21.3375 25.4625 29.5562 31.1225 29.5625 31.1225Z" fill="#F44336"/>
<path d="M29.8475 21.5875C29.6075 24.7325 32.6338 26.4088 32.7213 28.7063C32.7913 30.5763 30.9125 32.135 30.9125 32.135C30.9125 32.135 34.3225 31.465 35.3863 28.6125C36.5675 25.445 33.0938 23.2763 33.4513 20.74C33.785 18.3175 40.99 13.8113 40.99 13.8113C40.99 13.8113 30.3888 14.5138 29.8475 21.5875Z" fill="#F44336"/>
<path d="M40.105 31.3188C42.2975 30.8263 44.1463 32.2225 44.1463 33.8313C44.1463 37.4575 39.12 40.885 39.12 40.885C39.12 40.885 46.9013 39.9575 46.9013 34.0038C46.9013 30.0663 43.08 29.0825 40.105 31.3188ZM36.4113 34.2438C36.4113 34.2438 38.8375 32.515 39.4838 31.8663C33.53 33.13 19.9363 33.3 19.9363 32.2025C19.9363 31.1913 24.32 30.155 24.32 30.155C24.32 30.155 14.6038 30.015 14.6038 32.8813C14.6038 35.8688 27.3225 36.0825 36.4113 34.2438Z" fill="#1565C0"/>
<path d="M34.9188 36.9637C29.2825 38.8374 18.9013 38.2387 21.9763 35.7224C20.4788 35.7224 18.2588 36.9262 18.2588 38.0837C18.2588 40.4049 29.4863 42.1974 37.7963 38.7987L34.9188 36.9637Z" fill="#1565C0"/>
<path d="M23.3575 40.9238C21.3125 40.9238 19.9888 42.2413 19.9888 43.2013C19.9888 46.1901 32.1888 46.4913 37.0225 43.4576L33.95 41.4176C30.3388 43.0051 21.2675 43.2238 23.3575 40.9238Z" fill="#1565C0"/>
<path d="M45.3513 45.7901C45.3513 44.6201 44.0325 44.0689 43.56 43.8051C46.345 50.5214 15.6638 50.0001 15.6638 46.0351C15.6638 45.1339 17.9225 44.2514 20.01 44.6689L18.235 43.6201C14.075 42.9676 11.25 44.7964 11.25 46.2714C11.25 53.1501 45.3513 52.8189 45.3513 45.7901Z" fill="#1565C0"/>
<path d="M48.7499 48.2551C43.5674 53.3739 30.4262 55.2389 17.2112 52.0764C30.4262 57.7051 48.6874 54.5351 48.7499 48.2551Z" fill="#1565C0"/>
</g>
<defs>
<clipPath id="clip0_2504_155">
<rect width="60" height="60" fill="white"/>
</clipPath>
</defs>
</svg>
