<svg width="60" height="60" viewBox="0 0 60 60" fill="none" xmlns="http://www.w3.org/2000/svg">
<rect width="60" height="60" fill="white"/>
<path fill-rule="evenodd" clip-rule="evenodd" d="M40.4941 46.0286C40.5668 45.8889 40.6364 45.7656 40.6957 45.638C40.733 45.5564 40.7906 45.54 40.8718 45.5422C41.3587 45.5559 41.8455 45.571 42.3328 45.5757C42.7466 45.58 43.1612 45.5722 43.5754 45.5675C44.0421 45.5619 44.5087 45.5374 44.9749 45.5508C45.5958 45.5688 46.2008 45.6904 46.7624 45.9667C47.4332 46.2971 47.9406 46.8003 48.2865 47.4633C48.5074 47.8865 48.6354 48.3356 48.6866 48.8125C48.7605 49.5035 48.7119 50.1785 48.4928 50.8394C48.2212 51.6583 47.7056 52.2853 46.9893 52.7549C46.438 53.1163 45.8334 53.3298 45.1855 53.4519C44.4997 53.5812 43.8118 53.5395 43.1238 53.5417C42.3693 53.5447 41.6152 53.5283 40.8607 53.5197C40.7287 53.5185 40.7098 53.4935 40.7446 53.3676L40.7769 53.2516C40.8504 53.0204 40.8899 53.0101 41.1245 52.9715C41.2869 52.9453 41.4554 52.8842 41.5916 52.794C41.6706 52.7416 41.7033 52.6049 41.7342 52.4997C41.7609 52.4077 41.7621 52.3067 41.763 52.2096C41.7737 50.738 41.7849 49.2667 41.7909 47.7959C41.7922 47.4242 41.7836 47.0517 41.763 46.6804C41.7484 46.4205 41.6096 46.2426 41.3002 46.1811C41.0596 46.1334 40.8173 46.0965 40.5753 46.0539L40.4941 46.0286ZM47.4018 49.592C47.3691 49.2989 47.3532 49.0033 47.3008 48.7146C47.1753 48.0215 46.872 47.4178 46.3392 46.9447C45.4777 46.1803 44.4404 46.0625 43.3533 46.1536C43.1058 46.1742 43.0525 46.2589 43.0486 46.5133C43.0426 46.8742 43.0366 47.2351 43.0362 47.5961C43.0345 48.7408 43.0345 49.8855 43.0362 51.0301C43.0366 51.3558 43.04 51.6815 43.0495 52.0064C43.0598 52.339 43.1805 52.6204 43.5062 52.7493C44.0197 52.9526 44.5598 52.9766 45.0987 52.8937C45.9593 52.7618 46.5613 52.2603 46.9652 51.5088C47.2849 50.9124 47.3752 50.2614 47.4018 49.592ZM49.4939 53.4897C49.4836 53.3113 49.5567 53.164 49.6469 53.0286C49.6714 52.9921 49.7556 52.9938 49.8136 52.9822L50.3061 52.8847C50.4801 52.8477 50.5716 52.7308 50.5961 52.5603C50.6124 52.4477 50.6279 52.3338 50.6292 52.2199C50.6399 51.3189 50.6502 50.4178 50.6545 49.5168C50.6588 48.6144 50.6554 47.7121 50.6554 46.8097L50.6515 46.6374C50.6339 46.3474 50.4938 46.197 50.2059 46.1545L49.5816 46.0595C49.5047 46.0492 49.4768 46.0122 49.5047 45.9439C49.5528 45.8275 49.5988 45.7067 49.6667 45.6019C49.692 45.5632 49.7775 45.5482 49.8351 45.5495C50.1333 45.5538 50.4315 45.5761 50.7297 45.5757L53.3255 45.5602C53.8256 45.5598 54.3086 45.647 54.7572 45.8863C55.2509 46.1493 55.5272 46.5562 55.6062 47.1105C55.6887 47.6928 55.5121 48.1835 55.0868 48.5732C54.9119 48.7339 54.6854 48.8387 54.4826 48.9694L54.4164 49.0106C54.6046 49.0798 54.7838 49.1395 54.9583 49.2108C55.4687 49.4201 55.8748 49.7471 56.0896 50.2692C56.2594 50.6812 56.2594 51.1109 56.1588 51.538C56.0024 52.2066 55.562 52.6513 54.9892 52.9878C54.4517 53.3036 53.8699 53.4875 53.2503 53.5185C52.6788 53.5472 52.1047 53.5365 51.532 53.5429L51.2002 53.5447C50.6485 53.5322 50.0964 53.518 49.5442 53.5034L49.4939 53.4897ZM51.8731 50.8733H51.8787C51.8787 51.156 51.8748 51.4388 51.88 51.7215C51.8834 51.9046 51.877 52.0928 51.9165 52.2689C51.9758 52.5323 52.0961 52.7699 52.3918 52.8456C52.7909 52.9483 53.1987 52.9689 53.6026 52.8988C54.1084 52.8108 54.5118 52.5572 54.7331 52.0756C54.8973 51.7176 54.9218 51.3382 54.8655 50.9506C54.7907 50.4402 54.5196 50.0698 54.0688 49.827C53.7732 49.6676 53.4578 49.5701 53.1218 49.5572C52.7454 49.543 52.3686 49.5421 51.9921 49.5305C51.8864 49.5275 51.8718 49.5812 51.8723 49.668C51.8744 50.0694 51.8731 50.4711 51.8731 50.8733ZM52.6745 48.9505C52.8803 48.9401 53.1132 48.9371 53.3448 48.9139C53.7882 48.8697 54.1006 48.6467 54.2635 48.2226C54.3464 48.0073 54.343 47.7856 54.3451 47.5617C54.3516 46.9786 54.0112 46.5008 53.4574 46.3031C53.0298 46.1506 52.589 46.148 52.1455 46.1601C51.9659 46.1648 51.8856 46.2434 51.883 46.4243L51.8564 48.7829C51.8551 48.8765 51.8955 48.9169 51.9866 48.9199L52.6745 48.9505Z" fill="#94795D"/>
<path fill-rule="evenodd" clip-rule="evenodd" d="M7.53029 53.0363L7.49893 53.4419C7.20674 53.4419 6.93732 53.4398 6.66791 53.4428C6.16045 53.4479 5.65299 53.4561 5.1451 53.4634L5.09611 53.4664C5.0235 53.4578 4.89158 53.4578 4.88814 53.4363C4.86666 53.3156 4.87353 53.1888 4.87912 53.0638C4.87955 53.0496 4.92896 53.0316 4.95775 53.0247L5.35264 52.9366C5.59885 52.8726 5.68564 52.7665 5.69725 52.5121C5.71057 52.2255 5.72389 51.9384 5.72518 51.6518C5.72904 50.9463 5.72475 50.2416 5.72775 49.5361C5.72818 49.3711 5.67103 49.2482 5.51721 49.1811C5.33416 49.1004 5.15025 49.0213 4.96506 48.9465C4.8774 48.9113 4.76353 48.892 4.77385 48.7742C4.78416 48.6543 4.89459 48.623 4.99857 48.5993C5.42912 48.5009 5.8601 48.4051 6.28935 48.3003C6.42771 48.2663 6.56006 48.2092 6.72549 48.1516C6.73408 48.241 6.74998 48.3261 6.74826 48.4111L6.72291 48.8155C6.72248 48.861 6.74611 48.922 6.78006 48.9474C6.80068 48.9633 6.86986 48.9345 6.90424 48.9079C7.27119 48.6286 7.65963 48.3875 8.10264 48.247C8.78885 48.0292 9.37795 48.2311 9.79045 48.8228C9.93568 49.0312 9.93611 49.0312 10.1376 48.8855C10.4835 48.6342 10.8453 48.4124 11.2501 48.2663C12.1387 47.9454 12.9925 48.3527 13.3014 49.2477C13.414 49.5726 13.457 49.9082 13.4561 50.2511L13.4479 52.5275C13.4475 52.7153 13.5098 52.8223 13.6886 52.8808C13.8892 52.9465 14.0972 52.9916 14.3232 53.0509L14.2708 53.4424C14.0138 53.4424 13.7775 53.4406 13.5412 53.4428C12.9637 53.4479 12.3862 53.4509 11.8091 53.4643C11.7086 53.4668 11.6824 53.4419 11.6772 53.3478C11.6604 53.0466 11.6579 53.047 11.9415 52.9792L12.0369 52.9547C12.314 52.879 12.4064 52.794 12.4085 52.5129C12.415 51.706 12.4317 50.8969 12.3909 50.0917C12.3484 49.2563 11.6854 48.8116 10.8758 49.0256C10.6116 49.0952 10.3722 49.2172 10.1497 49.3754C10.0745 49.4291 10.0603 49.4909 10.0663 49.585C10.0891 49.9408 10.1033 50.297 10.1063 50.6533C10.1114 51.2767 10.1037 51.9002 10.1063 52.5241C10.1071 52.7768 10.1935 52.8734 10.4431 52.9319L10.814 53.0174L10.8827 53.0329C10.8879 53.1515 10.8926 53.27 10.887 53.3886C10.8836 53.463 10.826 53.4694 10.7615 53.4681C10.401 53.4591 10.0401 53.4471 9.67959 53.4479C9.24088 53.4488 8.8026 53.4613 8.36432 53.469H8.26119C8.26119 53.3431 8.25517 53.2228 8.26549 53.1029C8.26764 53.0741 8.31834 53.0337 8.35314 53.0247L8.78541 52.9332C8.96889 52.8881 9.05654 52.794 9.06685 52.6075C9.11584 51.7438 9.15107 50.8797 9.06986 50.0165C9.05396 49.8489 8.99939 49.6787 8.92978 49.5245C8.7085 49.0355 8.21049 48.8314 7.636 48.9783C7.36314 49.0479 7.11693 49.173 6.88404 49.3307C6.77404 49.4054 6.72162 49.5043 6.72162 49.6293C6.72162 50.4908 6.72463 51.3524 6.72721 52.2134L6.73193 52.5456C6.73709 52.7772 6.83549 52.8992 7.06537 52.9491C7.21318 52.9826 7.36271 53.0054 7.53029 53.0363Z" fill="#50382B"/>
<path fill-rule="evenodd" clip-rule="evenodd" d="M33.5081 48.2396C33.5747 48.5636 33.5735 48.8549 33.3354 49.0758C33.0991 49.2954 32.8 49.2215 32.5083 49.1725C32.5353 49.3263 32.5654 49.4569 32.58 49.5893C32.6861 50.5728 32.2629 51.3029 31.3507 51.7201C31.0061 51.8774 30.6404 51.9358 30.267 51.9659C30.0814 51.9805 29.919 52.1223 29.9013 52.2748C29.8833 52.4295 29.9804 52.5885 30.1746 52.6349C30.4036 52.6895 30.6426 52.7049 30.8776 52.732C31.382 52.7896 31.8921 52.8158 32.3905 52.906C33.1442 53.0418 33.5649 53.6997 33.4321 54.4568C33.3139 55.1305 32.9238 55.6208 32.3798 55.9968C31.4633 56.6318 30.4578 56.8175 29.387 56.4935C28.7747 56.3079 28.3429 55.9052 28.1938 55.2538C28.119 54.9277 28.1985 54.6325 28.4438 54.4112C28.7356 54.1491 29.0531 53.9154 29.3586 53.6679L29.4575 53.5686L29.344 53.4891C29.0325 53.3413 28.7833 53.1389 28.6866 52.7874C28.6535 52.6684 28.6879 52.5902 28.7889 52.5292C28.9608 52.4256 29.1318 52.3204 29.3015 52.2134C29.3814 52.1635 29.4605 52.112 29.5348 52.0544C29.6362 51.977 29.6272 51.9195 29.506 51.8748C29.2242 51.7708 28.9736 51.62 28.7794 51.3879C28.455 51.0008 28.3631 50.5397 28.3897 50.0529C28.4314 49.2924 28.8443 48.7913 29.5155 48.4691C30.3134 48.0862 31.1139 48.0622 31.9273 48.4111C32.2281 48.54 32.5452 48.5675 32.8679 48.5451C33.109 48.5279 33.3195 48.4368 33.5081 48.2396ZM30.5678 53.6885C29.9688 53.6833 29.781 53.7572 29.4295 54.1152C29.036 54.5165 29.0381 55.0729 29.4308 55.476C29.729 55.7815 30.1011 55.9246 30.5149 55.9675C30.9983 56.0174 31.4744 55.9972 31.9136 55.7553C32.3819 55.4962 32.6148 55.0149 32.5095 54.5302C32.4223 54.1302 32.1276 53.9472 31.7688 53.8419C31.3606 53.7224 30.9386 53.6997 30.5678 53.6885ZM29.3913 49.8608C29.4132 50.0271 29.4222 50.1956 29.4592 50.3584C29.555 50.7804 29.7385 51.1512 30.1583 51.339C30.6511 51.5602 31.2806 51.4653 31.4963 50.7735C31.6442 50.2995 31.6261 49.829 31.4478 49.3667C31.3683 49.1604 31.2402 48.986 31.0568 48.8579C30.6288 48.5593 29.8567 48.5198 29.5421 49.1798C29.4399 49.3942 29.3999 49.6224 29.3913 49.8608Z" fill="#4F382B"/>
<path fill-rule="evenodd" clip-rule="evenodd" d="M23.3457 48.1336C23.3616 48.2071 23.3934 48.2905 23.3943 48.3743C23.3956 48.5337 23.3784 48.6931 23.3693 48.8525V48.9909L23.5043 48.8877C23.8738 48.5835 24.2708 48.3244 24.7332 48.1848C25.5676 47.9334 26.4012 48.3902 26.6732 49.2401C26.7763 49.5632 26.8172 49.8954 26.821 50.2331C26.8296 50.9833 26.8348 51.7336 26.8425 52.4838C26.8451 52.7532 26.876 52.8013 27.1308 52.8791C27.2752 52.9234 27.4243 52.9543 27.5734 52.9775C27.6555 52.9904 27.6907 53.0226 27.6864 53.103L27.6873 53.1769C27.6843 53.4875 27.6628 53.5017 27.3616 53.5009C26.6406 53.4996 25.92 53.5039 25.199 53.5099C24.9841 53.5116 24.9837 53.518 24.9622 53.3058L24.9579 53.1837C24.9712 53.0007 24.9755 53.0024 25.1556 52.9758C25.2767 52.9577 25.397 52.9298 25.5152 52.8989C25.6368 52.8675 25.6952 52.7777 25.7116 52.6574C25.7197 52.5964 25.7305 52.5354 25.73 52.4743C25.7197 51.6545 25.7331 50.8338 25.6884 50.0152C25.6523 49.3531 25.147 48.9586 24.4822 49.0037C24.1561 49.0265 23.8613 49.1352 23.5924 49.323C23.4149 49.4472 23.3792 49.6264 23.3801 49.8193C23.3835 50.5859 23.3908 51.3524 23.399 52.1194C23.4007 52.2874 23.4054 52.4554 23.4213 52.6221C23.4381 52.8043 23.5021 52.8778 23.6809 52.9173C23.8519 52.9552 24.0263 52.9771 24.209 53.0076L24.2244 53.1485C24.2304 53.4772 24.1961 53.5017 23.8768 53.5004C23.1313 53.4974 22.3858 53.5021 21.6407 53.5103C21.5234 53.512 21.4736 53.4751 21.4766 53.3608L21.4748 53.3118C21.4555 53.0157 21.4641 53.0046 21.7443 52.9564L21.8766 52.9298C22.18 52.8615 22.2577 52.7807 22.262 52.4726C22.2762 51.4968 22.2814 50.5214 22.2913 49.5456C22.2925 49.4055 22.2397 49.2968 22.1091 49.2388C21.926 49.158 21.7413 49.0811 21.5561 49.005C21.4538 48.9629 21.3369 48.9363 21.3331 48.7949C21.3305 48.6952 21.437 48.6071 21.5827 48.5775C21.8753 48.5182 22.1705 48.4688 22.4597 48.3962C22.7476 48.3244 23.0303 48.2282 23.3457 48.1336Z" fill="#4F372B"/>
<path fill-rule="evenodd" clip-rule="evenodd" d="M39.4655 50.6825C39.4517 51.5938 39.215 52.3307 38.5704 52.8837C37.754 53.5854 36.4804 53.8239 35.4393 53.2993C34.995 53.0754 34.6684 52.7321 34.4557 52.2865C34.1296 51.6011 34.048 50.8805 34.2181 50.1423C34.3866 49.4123 34.8287 48.8834 35.4904 48.5409C36.171 48.189 36.8878 48.0515 37.6436 48.2362C38.5996 48.4696 39.2867 49.249 39.4233 50.2416C39.4478 50.4156 39.4573 50.5918 39.4655 50.6825ZM38.3582 51.1762L38.3212 51.1719C38.3212 51.0859 38.3259 51 38.3203 50.9141C38.289 50.3787 38.1687 49.8686 37.8584 49.4205C37.5641 48.9959 37.1632 48.7454 36.6416 48.7089C36.0576 48.6677 35.5669 48.9942 35.3946 49.5906C35.1359 50.4861 35.2236 51.3588 35.6782 52.1791C35.8763 52.5366 36.1698 52.8004 36.5629 52.9392C37.3333 53.2103 38.0166 52.8593 38.2172 52.0703C38.2911 51.779 38.3126 51.4744 38.3582 51.1762Z" fill="#4F382B"/>
<path fill-rule="evenodd" clip-rule="evenodd" d="M20.5394 50.7529C20.5235 51.4069 20.3693 52.0114 19.9654 52.5369C19.5327 53.0998 18.938 53.4006 18.2617 53.5274C17.462 53.6769 16.7109 53.5411 16.0685 53.0044C15.7635 52.7492 15.5551 52.4222 15.4176 52.0501C15.192 51.4399 15.1357 50.8148 15.2745 50.1775C15.4227 49.4956 15.8077 48.9744 16.4046 48.6246C17.0946 48.2212 17.8393 48.0411 18.6346 48.2224C19.6573 48.4562 20.2477 49.1226 20.466 50.1315C20.5098 50.3352 20.5158 50.5458 20.5394 50.7529ZM19.4197 51.1843L19.39 51.18V51.0571C19.3733 50.4573 19.256 49.8858 18.898 49.3873C18.6329 49.0174 18.278 48.7853 17.823 48.7205C17.0813 48.6148 16.5966 49.0548 16.4359 49.6524C16.2262 50.4332 16.292 51.2045 16.6164 51.9448C16.8188 52.4063 17.1385 52.766 17.6296 52.9404C18.3953 53.2124 19.0888 52.8523 19.2826 52.0664C19.3539 51.779 19.3754 51.479 19.4197 51.1843Z" fill="#4F372B"/>
<path fill-rule="evenodd" clip-rule="evenodd" d="M38.39 17.4133C38.9172 18.9374 39.2962 20.4933 39.4213 22.1055C39.5759 24.1061 39.5055 26.093 39.0835 28.0606L39.0294 28.2178C38.897 28.2183 38.7621 28.2015 38.6328 28.2217C37.5401 28.3936 36.4487 28.5715 35.3568 28.7485C34.2281 28.9315 33.0984 29.1073 31.9718 29.3024C31.5726 29.3711 31.0784 29.289 30.9173 29.8408L30.84 29.867L30.8945 26.5678L30.8391 18.6074L31.365 18.5172C32.2249 18.3767 33.0847 18.2336 33.9458 18.0965C34.9727 17.9337 36.0005 17.7747 37.0283 17.6157C37.4821 17.5461 37.9363 17.4812 38.39 17.4133Z" fill="#439934"/>
<path fill-rule="evenodd" clip-rule="evenodd" d="M29.7545 39.4852C29.1998 39.0082 28.6257 38.5523 28.0942 38.0504C25.2333 35.352 23.1403 32.1753 22.1095 28.3455C21.8255 27.2919 21.6364 26.2207 21.5754 25.1319C21.5324 24.3696 21.471 23.6009 21.5251 22.8425C21.6682 20.826 21.96 18.8288 22.5512 16.8862L22.5839 16.8411C22.6415 16.9175 22.724 16.9854 22.7532 17.0718C23.3307 18.7716 23.9035 20.4732 24.4737 22.1761C26.265 27.5261 28.0542 32.8774 29.8486 38.2266C29.8839 38.331 29.9745 38.4165 30.0398 38.5106L29.7545 39.4852Z" fill="#45A538"/>
<path fill-rule="evenodd" clip-rule="evenodd" d="M38.39 17.4133C37.9358 17.4808 37.4816 17.5461 37.0283 17.6157C36.0005 17.7747 34.9727 17.9337 33.9457 18.0965C33.0851 18.2332 32.2253 18.3763 31.365 18.5172L30.8391 18.6074L30.8348 18.2646C30.8172 17.9827 30.788 17.7008 30.7841 17.4189L30.7252 12.0246C30.7115 10.8993 30.6909 9.77393 30.6681 8.649C30.6539 7.9499 30.6389 7.25037 30.6075 6.55213C30.5903 6.17701 30.5297 5.80361 30.5057 5.4285C30.4915 5.21279 30.5104 4.99537 30.5151 4.77881C30.7832 5.2983 31.0458 5.82166 31.3212 6.33729C31.7565 7.1524 32.4504 7.75311 33.0756 8.40838C35.5446 10.9998 37.2973 14.0111 38.39 17.4133Z" fill="#46A037"/>
<path fill-rule="evenodd" clip-rule="evenodd" d="M30.8403 29.8672L30.9177 29.841C31.0788 29.2892 31.573 29.3713 31.9721 29.3026C33.0988 29.1075 34.2284 28.9317 35.3572 28.7487C36.449 28.5721 37.5405 28.3942 38.6331 28.2219C38.7625 28.2017 38.8974 28.2185 39.0297 28.218C38.8256 28.9468 38.6649 29.6914 38.4058 30.4C38.1115 31.2035 37.7557 31.9881 37.378 32.7572C36.8134 33.9067 36.11 34.9792 35.2928 35.9619C34.6628 36.719 33.9607 37.4198 33.2573 38.1112C32.868 38.4931 32.41 38.8047 31.9829 39.1484L31.872 39.0728L31.4737 38.7325L31.0616 37.8284C30.7776 36.7705 30.6289 35.6937 30.604 34.5989L30.6117 34.415L30.668 33.6183C30.6865 33.3464 30.7114 33.0748 30.723 32.8028C30.7643 31.8248 30.8012 30.846 30.8403 29.8672Z" fill="#409433"/>
<path fill-rule="evenodd" clip-rule="evenodd" d="M30.8404 29.8672C30.8018 30.846 30.7648 31.8253 30.7231 32.8041C30.7115 33.0765 30.687 33.3481 30.6681 33.6196L30.4172 33.7146C29.8595 32.0728 29.3013 30.4481 28.7556 28.8196C27.8528 26.125 26.9612 23.4266 26.0597 20.7312C25.3323 18.5561 24.5984 16.3823 23.8606 14.2102C23.8258 14.1088 23.727 14.0289 23.6582 13.9391L25.2652 10.9841C25.3207 11.08 25.3933 11.1698 25.4281 11.2729C26.1714 13.4729 26.9135 15.6733 27.6491 17.8759C28.6065 20.7419 29.5574 23.6092 30.5139 26.4757C30.5521 26.59 30.6148 26.6957 30.675 26.8241L30.895 26.568C30.8765 27.668 30.8585 28.7672 30.8404 29.8672Z" fill="#4FAA41"/>
<path fill-rule="evenodd" clip-rule="evenodd" d="M23.6577 13.939C23.7269 14.0288 23.8257 14.1087 23.8601 14.2101C24.5979 16.3822 25.3318 18.5555 26.0592 20.731C26.9607 23.4265 27.8523 26.1249 28.7551 28.8195C29.3008 30.448 29.859 32.0722 30.4167 33.7145L30.6676 33.6195L30.6113 34.4162L30.5602 34.5996C30.473 35.4715 30.3995 36.345 30.2929 37.2151C30.2397 37.6513 30.1258 38.0792 30.0394 38.5106C29.9746 38.4165 29.8835 38.331 29.8482 38.2266C28.0534 32.8774 26.2646 27.5261 24.4733 22.1761C23.9031 20.4732 23.3299 18.7717 22.7528 17.0718C22.7236 16.9854 22.6411 16.9176 22.5835 16.8411L23.6577 13.939Z" fill="#4AA73C"/>
<path fill-rule="evenodd" clip-rule="evenodd" d="M30.8944 26.568L30.6744 26.8241C30.6143 26.6956 30.5515 26.5899 30.5133 26.4756C29.5568 23.6092 28.6059 20.7419 27.6486 17.8758C26.9129 15.6733 26.1709 13.4728 25.4275 11.2728C25.3927 11.1697 25.3201 11.0799 25.2646 10.9841L27.252 8.36987C27.3147 8.45323 27.4041 8.52757 27.4363 8.62167C27.988 10.2373 28.5346 11.8542 29.0786 13.4724C29.5864 14.9841 30.0866 16.4974 30.6005 18.0065C30.6349 18.1075 30.7548 18.1788 30.8347 18.2647L30.839 18.6076L30.8944 26.568Z" fill="#57AE47"/>
<path fill-rule="evenodd" clip-rule="evenodd" d="M30.8347 18.2646C30.7543 18.1791 30.6349 18.1078 30.6005 18.0064C30.087 16.4973 29.5864 14.9839 29.0786 13.4723C28.5346 11.8541 27.988 10.2372 27.4363 8.62156C27.4041 8.52746 27.3147 8.45313 27.252 8.36977C27.8982 7.73684 28.5243 7.08113 29.1967 6.47742C29.7944 5.94117 30.2748 5.36625 30.2971 4.51848L30.3444 4.34961L30.5146 4.77844C30.5103 4.995 30.4909 5.21242 30.5051 5.42813C30.5296 5.80324 30.5902 6.17664 30.607 6.55176C30.6383 7.25 30.6534 7.94953 30.6675 8.64863C30.6903 9.77356 30.7109 10.8989 30.7247 12.0243L30.7836 17.4186C30.7879 17.7009 30.8175 17.9827 30.8347 18.2646Z" fill="#60B24F"/>
<path fill-rule="evenodd" clip-rule="evenodd" d="M30.0399 38.5102C30.1263 38.0788 30.2401 37.6508 30.2934 37.2146C30.4 36.345 30.4734 35.471 30.5607 34.5991L30.5826 34.5957L30.6041 34.5996C30.629 35.6944 30.7777 36.7712 31.0617 37.8291C31.0037 37.9056 30.9225 37.973 30.8915 38.059C30.6531 38.7319 30.4279 39.4104 30.1881 40.0828C30.1555 40.1748 30.0635 40.2465 29.9995 40.3269L29.7542 39.4847L30.0399 38.5102Z" fill="#A9AA88"/>
<path fill-rule="evenodd" clip-rule="evenodd" d="M29.9995 40.3274C30.0635 40.2466 30.1555 40.1753 30.1881 40.0833C30.4279 39.4108 30.6531 38.7324 30.8915 38.0595C30.9221 37.9735 31.0037 37.9061 31.0617 37.8296L31.4738 38.7337C31.3926 38.8488 31.28 38.9532 31.2349 39.0817L30.446 41.3986C30.4133 41.4918 30.3029 41.5571 30.2281 41.6358L29.9995 40.3274Z" fill="#B6B598"/>
<path fill-rule="evenodd" clip-rule="evenodd" d="M30.228 41.6353C30.3024 41.5566 30.4132 41.4913 30.4459 41.3981L31.2348 39.0812C31.2795 38.9527 31.3925 38.8483 31.4737 38.7332L31.8724 39.073C31.6799 39.2634 31.573 39.4834 31.6374 39.7614L31.5162 40.158C31.4612 40.2259 31.3813 40.2852 31.3542 40.363C31.0788 41.1519 30.8163 41.9451 30.5387 42.7335C30.5035 42.8332 30.4059 42.9119 30.3376 43.0004L30.228 41.6353Z" fill="#C2C1A7"/>
<path fill-rule="evenodd" clip-rule="evenodd" d="M30.3372 43.0001C30.406 42.9116 30.5035 42.833 30.5383 42.7333C30.8159 41.9448 31.0789 41.1516 31.3539 40.3627C31.3809 40.2849 31.4609 40.226 31.5159 40.1577L31.3487 41.9779C31.304 42.0294 31.2396 42.0746 31.2181 42.1343L30.6621 43.7276C30.623 43.8363 30.5482 43.9334 30.4898 44.0352C30.4378 43.9673 30.345 43.9016 30.3407 43.8311C30.3243 43.5553 30.3359 43.2772 30.3372 43.0001Z" fill="#CECDB7"/>
<path fill-rule="evenodd" clip-rule="evenodd" d="M30.4902 44.0356C30.5487 43.9338 30.6234 43.8367 30.6625 43.728L31.2186 42.1347C31.24 42.0745 31.3049 42.0298 31.3492 41.9783L31.3535 43.1728L30.9534 44.1985L30.4902 44.0356Z" fill="#DBDAC7"/>
<path fill-rule="evenodd" clip-rule="evenodd" d="M30.9534 44.1985L31.3534 43.1729L31.4359 44.3863L30.9534 44.1985Z" fill="#EBE9DC"/>
<path fill-rule="evenodd" clip-rule="evenodd" d="M31.637 39.7616C31.573 39.484 31.6796 39.264 31.8721 39.0732L31.9829 39.1489L31.637 39.7616Z" fill="#CECDB7"/>
<path fill-rule="evenodd" clip-rule="evenodd" d="M30.6039 34.6002L30.5825 34.5963L30.5605 34.5997L30.6117 34.4163L30.6039 34.6002Z" fill="#4FAA41"/>
</svg>
