<svg width="60" height="60" viewBox="0 0 60 60" fill="none" xmlns="http://www.w3.org/2000/svg">
<rect width="60" height="60" fill="white"/>
<g clip-path="url(#clip0_2504_77)">
<path d="M30.1845 47.0002C30.003 47.0002 29.8227 46.9521 29.6636 46.8596L28.0054 45.8687C27.7577 45.7289 27.8786 45.6795 27.9602 45.651C28.2905 45.5343 28.3575 45.5079 28.71 45.3059C28.747 45.2845 28.7955 45.2921 28.8334 45.3147L30.1073 46.0777C30.1533 46.1028 30.2186 46.1028 30.2612 46.0777L35.2282 43.1838C35.2742 43.1574 35.304 43.1034 35.304 43.0482V37.263C35.304 37.2052 35.2742 37.1538 35.2272 37.1249L30.2622 34.2335C30.2162 34.2059 30.1553 34.2059 30.1093 34.2335L25.1453 37.1249C25.0972 37.1525 25.0666 37.2065 25.0666 37.2617V43.047C25.0666 43.1022 25.0964 43.1549 25.1437 43.1813L26.5038 43.9744C27.2424 44.3471 27.6937 43.9079 27.6937 43.4661V37.7561C27.6937 37.6746 27.7571 37.6118 27.8379 37.6118H28.467C28.5453 37.6118 28.61 37.6746 28.61 37.7561V43.4686C28.61 44.4626 28.0729 45.0335 27.1392 45.0335C26.852 45.0335 26.6257 45.0335 25.9941 44.7198L24.6911 43.9618C24.3691 43.7736 24.1702 43.4222 24.1702 43.047V37.2617C24.1702 36.8852 24.3691 36.5338 24.6911 36.3481L29.6631 33.453C29.9776 33.2735 30.3954 33.2735 30.7074 33.453L35.6732 36.3494C35.994 36.5363 36.1941 36.8865 36.1941 37.263V43.0482C36.1941 43.4235 35.994 43.7736 35.6732 43.9618L30.7074 46.857C30.5483 46.9498 30.368 46.9975 30.184 46.9975" fill="#689F63"/>
<path d="M31.7188 43.0136C29.5455 43.0136 29.0898 42.0067 29.0898 41.1621C29.0898 41.0818 29.154 41.0178 29.2337 41.0178H29.8752C29.9461 41.0178 30.0058 41.0699 30.017 41.1405C30.114 41.8004 30.4024 42.1332 31.7166 42.1332C32.7634 42.1332 33.2085 41.8945 33.2085 41.3342C33.2085 41.0116 33.0817 40.7719 31.4555 40.6113C30.0953 40.4758 29.2548 40.1733 29.2548 39.0753C29.2548 38.0638 30.1003 37.4614 31.5164 37.4614C33.1066 37.4614 33.8948 38.0186 33.9943 39.2158C33.998 39.2572 33.9831 39.2974 33.9557 39.3275C33.9284 39.3564 33.8899 39.3739 33.8501 39.3739H33.2048C33.1377 39.3739 33.0792 39.3263 33.0655 39.261C32.9101 38.567 32.5347 38.3449 31.5139 38.3449C30.3713 38.3449 30.2383 38.7465 30.2383 39.0477C30.2383 39.4128 30.3949 39.5195 31.9366 39.7253C33.4634 39.9299 34.1882 40.2185 34.1882 41.3015C34.1882 42.3933 33.2856 43.0195 31.7116 43.0195M37.7615 36.8841H37.9281C38.0649 36.8841 38.091 36.7875 38.091 36.731C38.091 36.5829 37.9903 36.5829 37.9343 36.5829H37.7627L37.7615 36.8841ZM37.5588 36.4098H37.9281C38.0549 36.4098 38.3036 36.4098 38.3036 36.6959C38.3036 36.8954 38.1768 36.9368 38.1009 36.9619C38.2489 36.972 38.2588 37.0699 38.2787 37.2079C38.2886 37.2945 38.3048 37.4438 38.3347 37.494H38.1071C38.1009 37.4438 38.0661 37.1678 38.0661 37.1527C38.0512 37.0912 38.03 37.0611 37.9542 37.0611H37.7665V37.4953H37.5588V36.4098ZM37.115 36.9494C37.115 37.3987 37.4743 37.7626 37.9157 37.7626C38.3608 37.7626 38.7201 37.3911 38.7201 36.9494C38.7201 36.4989 38.3558 36.1412 37.9144 36.1412C37.4793 36.1412 37.1137 36.4938 37.1137 36.9481M38.8742 36.9519C38.8742 37.484 38.4428 37.9182 37.9169 37.9182C37.3947 37.9182 36.9596 37.489 36.9596 36.9519C36.9596 36.4047 37.4047 35.9856 37.9169 35.9856C38.4329 35.9856 38.873 36.406 38.873 36.9519" fill="#689F63"/>
<path fill-rule="evenodd" clip-rule="evenodd" d="M14.8034 24.3635C14.8034 24.1326 14.6828 23.9205 14.4854 23.8056L9.21924 20.7474C9.13034 20.6946 9.03075 20.667 8.9298 20.6633H8.87534C8.77438 20.667 8.67479 20.6946 8.58441 20.7474L3.31853 23.8056C3.12234 23.9211 3 24.1332 3 24.3641L3.01156 32.6015C3.01156 32.7157 3.07 32.8224 3.16946 32.8789C3.26644 32.9391 3.38828 32.9391 3.48526 32.8789L6.61589 31.0692C6.81357 30.9505 6.93417 30.7407 6.93417 30.5121V26.6638C6.93417 26.4341 7.05477 26.222 7.25184 26.1078L8.58466 25.333C8.68362 25.2753 8.79229 25.2467 8.90294 25.2467C9.01185 25.2467 9.123 25.2751 9.21924 25.3329L10.5514 26.1075C10.7486 26.2217 10.8697 26.4337 10.8697 26.6634V30.5114C10.8697 30.7398 10.9919 30.9507 11.1886 31.0686L14.3173 32.877C14.4155 32.936 14.5377 32.936 14.6355 32.877C14.732 32.8205 14.7932 32.7138 14.7932 32.5996L14.8034 24.3635ZM39.653 28.6524C39.653 28.7097 39.6228 28.7628 39.5734 28.7912L37.7647 29.8435C37.7156 29.872 37.6549 29.872 37.6059 29.8435L35.7969 28.7912C35.7472 28.7627 35.7173 28.7096 35.7173 28.6524V26.5446C35.7173 26.4871 35.7472 26.4341 35.7956 26.4053L37.6034 25.3511C37.6531 25.3222 37.7141 25.3222 37.7638 25.3511L39.5728 26.4053C39.6225 26.4341 39.6524 26.4871 39.6524 26.5446L39.653 28.6524ZM40.1416 13.0406C40.0429 12.9852 39.9228 12.9867 39.8253 13.044C39.7283 13.1017 39.6684 13.2072 39.6684 13.3214V21.4785C39.6684 21.5588 39.6261 21.6328 39.5573 21.673C39.4889 21.7132 39.4037 21.7132 39.3347 21.673L38.0156 20.9061C37.8191 20.7914 37.5772 20.7914 37.38 20.9061L32.1121 23.9748C31.9153 24.089 31.7938 24.3011 31.7938 24.5295V30.6687C31.7938 30.8983 31.9153 31.1092 32.1121 31.2246L37.38 34.2954C37.5767 34.4096 37.8189 34.4096 38.0162 34.2954L43.284 31.2234C43.4805 31.1079 43.6023 30.8971 43.6023 30.6674V15.3672C43.6023 15.1343 43.4768 14.92 43.2753 14.8062L40.1416 13.0406ZM57.6837 26.4891C57.8794 26.3744 57.9999 26.1626 57.9999 25.9342V24.4463C57.9999 24.2174 57.8793 24.0062 57.6832 23.891L52.4489 20.8239C52.2512 20.7085 52.0088 20.7085 51.8111 20.8239L46.5445 23.8922C46.3468 24.0077 46.2262 24.2185 46.2262 24.4482V30.5848C46.2262 30.8157 46.3493 31.0291 46.547 31.1433L51.78 34.1539C51.9727 34.2656 52.209 34.2668 52.4041 34.1577L55.5696 32.3819C55.6691 32.3254 55.7325 32.2188 55.7325 32.1033C55.7325 31.9879 55.6715 31.8799 55.5721 31.8235L50.2731 28.7539C50.1737 28.6974 50.1127 28.5907 50.1127 28.4765V26.5515C50.1127 26.4365 50.1724 26.3306 50.2719 26.2734L51.9205 25.3133C52.0187 25.2556 52.1393 25.2556 52.2375 25.3133L53.8874 26.2734C53.9856 26.3298 54.0465 26.4365 54.0465 26.5507V28.0642C54.0465 28.1784 54.1075 28.285 54.2057 28.3428C54.3039 28.3992 54.4258 28.3992 54.524 28.3415L57.6837 26.4891Z" fill="#333333"/>
<path fill-rule="evenodd" clip-rule="evenodd" d="M52.0531 26.202C52.0904 26.1797 52.1371 26.1797 52.1749 26.202L53.1857 26.7905C53.2235 26.8126 53.2466 26.8533 53.2466 26.8972V28.0756C53.2466 28.1195 53.2235 28.1602 53.1857 28.1823L52.1749 28.7708C52.1371 28.793 52.0904 28.793 52.0531 28.7708L51.0429 28.1823C51.0043 28.1602 50.9807 28.1195 50.9807 28.0756V26.8972C50.9807 26.8533 51.0031 26.8126 51.0416 26.7905L52.0531 26.202Z" fill="#689F63"/>
<mask id="mask0_2504_77" style="mask-type:luminance" maskUnits="userSpaceOnUse" x="17" y="20" width="13" height="15">
<path d="M22.9828 20.8546L17.7448 23.9063C17.5486 24.0205 17.4282 24.2313 17.4282 24.4592V30.5667C17.4282 30.7948 17.5486 31.0055 17.7448 31.1197L22.9832 34.1737C23.179 34.2875 23.4204 34.2875 23.616 34.1737L28.8535 31.1197C29.0487 31.0055 29.1693 30.7946 29.1693 30.5667V24.4592C29.1693 24.2313 29.0487 24.0205 28.8523 23.9063L23.6155 20.8546C23.5173 20.7978 23.4079 20.7693 23.2985 20.7693C23.1891 20.7693 23.0796 20.7978 22.9814 20.8546" fill="white"/>
</mask>
<g mask="url(#mask0_2504_77)">
<path d="M34.4626 23.3882L19.7027 16.0857L12.1348 31.6688L26.8942 38.9717L34.4626 23.3882Z" fill="url(#paint0_linear_2504_77)"/>
</g>
<mask id="mask1_2504_77" style="mask-type:luminance" maskUnits="userSpaceOnUse" x="17" y="20" width="12" height="15">
<path d="M17.5581 30.9545C17.6082 31.0201 17.6709 31.077 17.7446 31.1197L22.2379 33.7394L22.9864 34.1736C23.0983 34.2388 23.2258 34.2664 23.3511 34.257C23.3929 34.2536 23.4347 34.2457 23.4755 34.234L28.9999 24.0238C28.9577 23.9774 28.9082 23.9385 28.8527 23.9059L25.423 21.9068L23.61 20.8539C23.5585 20.8237 23.5027 20.8024 23.4459 20.7874L17.5581 30.9545Z" fill="white"/>
</mask>
<g mask="url(#mask1_2504_77)">
<path d="M11.1765 25.5479L21.5985 39.7856L35.3817 29.5068L24.9591 15.2695L11.1765 25.5479Z" fill="url(#paint1_linear_2504_77)"/>
</g>
<mask id="mask2_2504_77" style="mask-type:luminance" maskUnits="userSpaceOnUse" x="17" y="20" width="13" height="15">
<path d="M23.2361 20.7726C23.1482 20.7814 23.0623 20.809 22.9831 20.8545L17.76 23.8973L23.3922 34.2518C23.4705 34.2406 23.5476 34.2142 23.6172 34.1735L28.8552 31.1195C29.0168 31.0249 29.1275 30.8648 29.1611 30.6833L23.4195 20.7831C23.3772 20.7747 23.335 20.7703 23.2915 20.7703C23.274 20.7703 23.2566 20.7711 23.2392 20.7728" fill="white"/>
</mask>
<g mask="url(#mask2_2504_77)">
<path d="M17.76 20.7703V34.2521H29.159V20.7703H17.76Z" fill="url(#paint2_linear_2504_77)"/>
</g>
</g>
<defs>
<linearGradient id="paint0_linear_2504_77" x1="27.0782" y1="19.7255" x2="19.3964" y2="35.2509" gradientUnits="userSpaceOnUse">
<stop offset="0.3" stop-color="#3E863D"/>
<stop offset="0.5" stop-color="#55934F"/>
<stop offset="0.8" stop-color="#5AAD45"/>
</linearGradient>
<linearGradient id="paint1_linear_2504_77" x1="16.45" y1="32.7483" x2="30.3242" y2="22.592" gradientUnits="userSpaceOnUse">
<stop offset="0.57" stop-color="#3E863D"/>
<stop offset="0.72" stop-color="#619857"/>
<stop offset="1" stop-color="#76AC64"/>
</linearGradient>
<linearGradient id="paint2_linear_2504_77" x1="17.7639" y1="27.5116" x2="29.1611" y2="27.5116" gradientUnits="userSpaceOnUse">
<stop offset="0.16" stop-color="#6BBF47"/>
<stop offset="0.38" stop-color="#79B461"/>
<stop offset="0.47" stop-color="#75AC64"/>
<stop offset="0.7" stop-color="#659E5A"/>
<stop offset="0.9" stop-color="#3E863D"/>
</linearGradient>
<clipPath id="clip0_2504_77">
<rect width="55" height="34" fill="white" transform="translate(3 13)"/>
</clipPath>
</defs>
</svg>
