<svg width="60" height="60" viewBox="0 0 60 60" fill="none" xmlns="http://www.w3.org/2000/svg">
<rect width="60" height="60" fill="white"/>
<g clip-path="url(#clip0_2504_152)">
<path d="M30.4235 8C19.799 8 19.6849 12.124 19.6849 12.9729C19.6849 14.2607 19.6849 18.125 19.6849 18.125H30.628V19.6718C30.628 19.6718 19.234 19.6718 15.3383 19.6718C12.0864 19.6718 8 21.6489 8 30.4104C8 38.4585 11.1876 41.5708 14.4047 41.5708C15.36 41.5708 18.2273 41.5708 18.2273 41.5708C18.2273 41.5708 18.2273 37.576 18.2273 36.2015C18.2273 33.9552 19.3404 29.7968 24.5297 29.7968C31.0384 29.7968 32.6997 29.7968 35.3833 29.7968C36.9796 29.7968 41.4812 29.103 41.4812 23.9034C41.4812 18.4003 41.4812 16.5848 41.4812 13.9956C41.4816 12.7058 41.2611 8 30.4235 8ZM24.3894 11.4646C25.4784 11.4646 26.3584 12.3441 26.3584 13.4335C26.3584 14.5221 25.4784 15.4025 24.3894 15.4025C23.3004 15.4025 22.4205 14.5225 22.4205 13.4335C22.4205 12.3441 23.3004 11.4646 24.3894 11.4646Z" fill="url(#paint0_linear_2504_152)"/>
<path d="M30.5764 53C41.196 53 41.3282 48.7982 41.3282 48.0271C41.3282 46.7393 41.3282 42.875 41.3282 42.875H30.3719V41.3282C30.3719 41.3282 41.8395 41.3282 45.6617 41.3282C48.9381 41.3282 52.9999 39.3016 52.9999 30.5896C52.9999 21.0488 48.689 19.4292 46.5952 19.4292C45.6396 19.4292 42.7727 19.4292 42.7727 19.4292C42.7727 19.4292 42.7727 23.6085 42.7727 24.7985C42.7727 27.0448 41.6964 31.2032 36.4702 31.2032C29.9616 31.2032 28.5028 31.2032 25.6162 31.2032C24.024 31.2032 19.5183 31.9789 19.5183 37.0966C19.5183 43.0182 19.5183 44.5687 19.5183 47.0044C19.5183 49.1439 20.8258 53 30.5764 53ZM36.611 49.5354C35.522 49.5354 34.642 48.6555 34.642 47.5665C34.642 46.4775 35.5215 45.5975 36.611 45.5975C37.6995 45.5975 38.5799 46.4775 38.5799 47.5665C38.5799 48.6555 37.6995 49.5354 36.611 49.5354Z" fill="url(#paint1_linear_2504_152)"/>
</g>
<defs>
<linearGradient id="paint0_linear_2504_152" x1="12.2171" y1="12.0198" x2="34.5852" y2="34.4627" gradientUnits="userSpaceOnUse">
<stop stop-color="#387EB8"/>
<stop offset="1" stop-color="#366994"/>
</linearGradient>
<linearGradient id="paint1_linear_2504_152" x1="25.8105" y1="26.3588" x2="49.7923" y2="49.3345" gradientUnits="userSpaceOnUse">
<stop stop-color="#FFE052"/>
<stop offset="1" stop-color="#FFC331"/>
</linearGradient>
<clipPath id="clip0_2504_152">
<rect width="45" height="45" fill="white" transform="translate(8 8)"/>
</clipPath>
</defs>
</svg>
