<svg width="60" height="60" viewBox="0 0 60 60" fill="none" xmlns="http://www.w3.org/2000/svg">
<rect width="60" height="60" fill="#292929"/>
<g clip-path="url(#clip0_2504_32)">
<path d="M29.4999 34.0072C31.715 34.0072 33.5108 32.2131 33.5108 30.0001C33.5108 27.787 31.715 25.9929 29.4999 25.9929C27.2847 25.9929 25.489 27.787 25.489 30.0001C25.489 32.2131 27.2847 34.0072 29.4999 34.0072Z" fill="#61DAFB"/>
<path d="M29.5 38.2098C41.3861 38.2098 51.0218 34.5341 51.0218 30C51.0218 25.4659 41.3861 21.7903 29.5 21.7903C17.6139 21.7903 7.97827 25.4659 7.97827 30C7.97827 34.5341 17.6139 38.2098 29.5 38.2098Z" stroke="#61DAFB" stroke-width="1.5"/>
<path d="M22.3836 34.105C28.3267 44.3891 36.3307 50.8882 40.261 48.6211C44.1913 46.3541 42.5596 36.1793 36.6166 25.8952C30.6735 15.6111 22.6696 9.11198 18.7392 11.379C14.8089 13.6461 16.4406 23.8208 22.3836 34.105Z" stroke="#61DAFB" stroke-width="1.5"/>
<path d="M22.3836 25.8952C16.4406 36.1793 14.8089 46.354 18.7392 48.6211C22.6696 50.8881 30.6735 44.389 36.6166 34.1049C42.5596 23.8208 44.1913 13.6461 40.261 11.379C36.3307 9.11195 28.3267 15.6111 22.3836 25.8952Z" stroke="#61DAFB" stroke-width="1.5"/>
</g>
<defs>
<clipPath id="clip0_2504_32">
<rect width="45" height="40" fill="white" transform="translate(7 10)"/>
</clipPath>
</defs>
</svg>
