<svg width="60" height="60" viewBox="0 0 60 60" fill="none" xmlns="http://www.w3.org/2000/svg">
<rect width="60" height="60" fill="white"/>
<g clip-path="url(#clip0_2504_146)">
<path d="M44.6213 5.43322H10.111C7.79525 5.43322 5.91577 7.32948 5.91577 9.62849V47.688C5.91577 50.0038 7.81203 51.8833 10.111 51.8833H32.8494C32.5977 40.5728 36.4573 18.6232 44.6297 5.39966L44.6213 5.43322Z" fill="#0F80CC"/>
<path d="M43.3627 6.66675H10.111C8.46642 6.66675 7.13232 8.00923 7.13232 9.64539V44.9276C14.667 42.0329 25.9691 39.5409 33.7891 39.6584C36.1999 28.4486 39.3935 17.4238 43.3627 6.66675Z" fill="url(#paint0_linear_2504_146)"/>
<path d="M52.6762 4.19134C50.3101 2.0937 47.4489 2.93276 44.6213 5.43314L43.3627 6.65816C38.5298 11.7764 34.1331 21.2745 32.6564 28.5323C33.1825 29.6818 33.5983 30.8786 33.8982 32.1067L34.0828 32.9457L34.2674 33.8016C34.2674 33.8016 34.2254 33.6338 34.0492 33.1303L33.9317 32.7947C33.9082 32.7325 33.883 32.671 33.8562 32.6101C33.5374 31.8801 32.6815 30.3279 32.2872 29.6566C31.9819 30.5488 31.6938 31.4468 31.423 32.35C32.5305 34.3805 33.2018 37.8542 33.2018 37.8542C33.2018 37.8542 33.143 37.6277 32.8661 36.8473C32.6144 36.1509 31.3894 33.9945 31.1041 33.4911C30.6007 35.337 30.4077 36.5788 30.5839 36.8809C30.9195 37.4682 31.2552 38.559 31.5488 39.5994C32.002 41.4445 32.3715 43.3091 32.6564 45.1875L32.6983 45.7077C32.6114 47.806 32.6534 49.9076 32.8242 52.0007C33.0423 54.6269 33.4535 56.8839 33.9737 58.0922L34.3261 57.8992C33.5709 55.5163 33.2521 52.4034 33.3864 48.8039C33.5961 43.308 34.8547 36.6795 37.1957 29.7741C41.1644 19.2608 46.635 10.887 51.6526 6.89309C47.0797 11.0212 40.8959 24.379 39.05 29.321C36.9775 34.8588 35.5092 40.0609 34.6198 45.0365C36.1468 40.3714 41.0805 38.3576 41.0805 38.3576C41.0805 38.3576 43.5137 35.3706 46.333 31.0998L40.9211 32.543L39.1758 33.3149C39.1758 33.3149 43.6228 30.6048 47.4573 29.3714C52.7182 21.0899 58.4489 9.31796 52.6762 4.18295" fill="#003B57"/>
</g>
<defs>
<linearGradient id="paint0_linear_2504_146" x1="28.0332" y1="7.44707" x2="28.0332" y2="42.8048" gradientUnits="userSpaceOnUse">
<stop stop-color="#97D9F6"/>
<stop offset="0.92024" stop-color="#0F80CC"/>
<stop offset="1" stop-color="#0F80CC"/>
</linearGradient>
<clipPath id="clip0_2504_146">
<rect width="55" height="55" fill="white" transform="translate(3 3)"/>
</clipPath>
</defs>
</svg>
