<svg width="60" height="60" viewBox="0 0 60 60" fill="none" xmlns="http://www.w3.org/2000/svg">
<rect width="60" height="60" fill="#161D2D"/>
<g clip-path="url(#clip0_2504_47)">
<mask id="mask0_2504_47" style="mask-type:luminance" maskUnits="userSpaceOnUse" x="8" y="16" width="45" height="28">
<path d="M8 16H53V43.4909H8V16Z" fill="white"/>
</mask>
<g mask="url(#mask0_2504_47)">
<path fill-rule="evenodd" clip-rule="evenodd" d="M30.5 16C24.5 16 20.75 19.0545 19.25 25.1636C21.5 22.1091 24.125 20.9636 27.125 21.7273C28.8367 22.1625 30.06 23.4276 31.4142 24.8268C33.62 27.1067 36.1733 29.7455 41.75 29.7455C47.75 29.7455 51.5 26.6909 53 20.5818C50.75 23.6364 48.125 24.7818 45.125 24.0182C43.4133 23.5829 42.19 22.3178 40.8358 20.9187C38.63 18.6388 36.0767 16 30.5 16ZM19.25 29.7455C13.25 29.7455 9.5 32.8 8 38.9091C10.25 35.8545 12.875 34.7091 15.875 35.4727C17.5867 35.9088 18.81 37.1731 20.1642 38.5722C22.37 40.8521 24.9233 43.4909 30.5 43.4909C36.5 43.4909 40.25 40.4364 41.75 34.3273C39.5 37.3818 36.875 38.5273 33.875 37.7636C32.1633 37.3284 30.94 36.0633 29.5858 34.6641C27.38 32.3842 24.8267 29.7455 19.25 29.7455Z" fill="#38BDF8"/>
</g>
</g>
<defs>
<clipPath id="clip0_2504_47">
<rect width="45" height="28" fill="white" transform="translate(8 16)"/>
</clipPath>
</defs>
</svg>
